<?xml version="1.0" encoding="UTF-8" standalone="no"?><!DOCTYPE svg PUBLIC "-//W3C//DTD SVG 1.1//EN" "http://www.w3.org/Graphics/SVG/1.1/DTD/svg11.dtd"><svg width="100%" height="100%" viewBox="0 0 2084 2084" version="1.1" xmlns="http://www.w3.org/2000/svg" xmlns:xlink="http://www.w3.org/1999/xlink" xml:space="preserve" xmlns:serif="http://www.serif.com/" style="fill-rule:evenodd;clip-rule:evenodd;stroke-linejoin:round;stroke-miterlimit:2;"><path d="M1198.93,1187.78l-777.181,777.18c-12.429,12.43 -32.588,12.43 -45.017,0l-156.223,-156.222c-5.968,-5.968 -9.322,-14.068 -9.322,-22.509c-0.004,-8.444 3.354,-16.54 9.322,-22.509l78.675,-78.674l-288.04,-288.04c-12.432,-12.432 -12.432,-32.591 -0.003,-45.02l156.222,-156.223c5.969,-5.968 14.068,-9.323 22.509,-9.323c8.444,-0.003 16.54,3.355 22.512,9.327l288.04,288.039l40.687,-40.688l-287.917,-288.297c-12.426,-12.439 -12.41,-32.594 0.029,-45.021l156.322,-156.116c12.439,-12.426 32.595,-12.41 45.021,0.029l287.788,288.162l255.336,-255.335c-133.424,-223.292 -104.026,-517.078 88.197,-709.3c226.932,-226.933 595.411,-226.933 822.343,-0c226.933,226.932 226.933,595.41 0,822.343c-192.223,192.222 -486.009,221.62 -709.3,88.197Zm508.434,-709.674c-116.072,-116.072 -304.538,-116.072 -420.611,-0c-116.069,116.069 -116.072,304.538 0,420.61c116.073,116.072 304.542,116.069 420.611,0c116.072,-116.072 116.072,-304.538 -0,-420.61Z"/></svg>