<?xml version="1.0" encoding="UTF-8" standalone="no"?><!DOCTYPE svg PUBLIC "-//W3C//DTD SVG 1.1//EN" "http://www.w3.org/Graphics/SVG/1.1/DTD/svg11.dtd"><svg width="100%" height="100%" viewBox="0 0 256 500" version="1.1" xmlns="http://www.w3.org/2000/svg" xmlns:xlink="http://www.w3.org/1999/xlink" xml:space="preserve" xmlns:serif="http://www.serif.com/" style="fill-rule:evenodd;clip-rule:evenodd;stroke-linejoin:round;stroke-miterlimit:2;"><rect id="Artboard2" x="0" y="0" width="255.463" height="500" style="fill:none;"/><clipPath id="_clip1"><rect x="0" y="0" width="255.463" height="500"/></clipPath><g clip-path="url(#_clip1)"><path d="M159.15,252.589l0,241.419c0,3.861 -3.131,6.992 -6.992,6.992l-48.528,-0c-1.854,-0 -3.633,-0.737 -4.944,-2.048c-1.312,-1.311 -2.048,-3.09 -2.048,-4.944l-0,-24.439l-89.475,0c-3.862,0 -6.993,-3.131 -6.993,-6.992l0,-48.528c0,-1.854 0.737,-3.633 2.048,-4.944c1.311,-1.312 3.09,-2.048 4.945,-2.048l89.475,-0l-0,-12.639l-89.496,-0.059c-3.862,-0.002 -6.99,-3.135 -6.988,-6.997l0.032,-48.527c0.002,-3.862 3.135,-6.99 6.997,-6.988l89.455,0.058l-0,-79.316c-55.404,-13.958 -96.468,-64.154 -96.468,-123.865c0,-70.493 57.231,-127.724 127.724,-127.724c70.493,0 127.724,57.231 127.724,127.724c-0,59.711 -41.064,109.907 -96.468,123.865Zm-31.256,-189.193c-36.056,-0 -65.328,29.272 -65.328,65.328c-0,36.055 29.272,65.328 65.328,65.328c36.056,0 65.328,-29.273 65.328,-65.328c0,-36.056 -29.272,-65.328 -65.328,-65.328Z"/></g></svg>